<mxfile host="app.diagrams.net" modified="2022-06-01T18:30:28.247Z" agent="5.0 (Windows)" etag="FdkezkR5ygr-KA7RCpeE" version="18.2.0" type="github">
  <diagram id="KbQLy3OMnYTvDfTse-Bw" name="Page-1">
    <mxGraphModel dx="704" dy="2057" grid="1" gridSize="10" guides="1" tooltips="1" connect="1" arrows="1" fold="1" page="1" pageScale="1" pageWidth="1169" pageHeight="827" math="1" shadow="0">
      <root>
        <mxCell id="0" />
        <mxCell id="1" parent="0" />
        <UserObject label="SISTEMI" lucidchartObjectId="9QElXrMDOgw3" id="V_KuhvTImbU-2_eGopWf-1">
          <mxCell style="html=1;overflow=block;blockSpacing=1;whiteSpace=wrap;fontSize=16.7;spacing=9;strokeOpacity=100;fillOpacity=100;rounded=1;absoluteArcSize=1;arcSize=9;strokeWidth=0.8;fillColor=#0000CC;strokeColor=#2D7600;fontColor=#FFFFFF;container=0;" parent="1" vertex="1">
            <mxGeometry x="432.5593731089102" y="-1640" width="91.86073328454573" height="49" as="geometry" />
          </mxCell>
        </UserObject>
        <UserObject label="ELETTRICI" lucidchartObjectId="oREl5EtMewR." id="V_KuhvTImbU-2_eGopWf-2">
          <mxCell style="html=1;overflow=block;blockSpacing=1;whiteSpace=wrap;fontSize=11;spacing=9;strokeOpacity=100;fillOpacity=100;rounded=1;absoluteArcSize=1;arcSize=9;strokeWidth=0.8;fillColor=#66FF66;strokeColor=#2D7600;fontColor=#000000;container=0;" parent="1" vertex="1">
            <mxGeometry x="334.5745909387283" y="-1566.5" width="73.48858662763658" height="30.624999999999996" as="geometry" />
          </mxCell>
        </UserObject>
        <UserObject label="ELETTRONICI" lucidchartObjectId="GREljfqATe~l" id="V_KuhvTImbU-2_eGopWf-3">
          <mxCell style="html=1;overflow=block;blockSpacing=1;whiteSpace=wrap;fontSize=11;spacing=9;strokeOpacity=100;fillOpacity=100;rounded=1;absoluteArcSize=1;arcSize=9;strokeWidth=0.8;fillColor=#66FF66;strokeColor=#2D7600;fontColor=#000000;container=0;" parent="1" vertex="1">
            <mxGeometry x="555.0403508216382" y="-1566.5" width="73.48858662763658" height="30.624999999999996" as="geometry" />
          </mxCell>
        </UserObject>
        <UserObject label="" lucidchartObjectId="dVEla7K8sojE" id="V_KuhvTImbU-2_eGopWf-4">
          <mxCell style="html=1;jettySize=18;whiteSpace=wrap;fontSize=13;strokeColor=#3a414a;strokeOpacity=100;strokeWidth=0.8;rounded=1;arcSize=0;edgeStyle=orthogonalEdgeStyle;startArrow=none;endArrow=block;endFill=1;exitX=-0.002;exitY=0.5;exitPerimeter=0;entryX=0.5;entryY=-0.008;entryPerimeter=0;" parent="1" source="V_KuhvTImbU-2_eGopWf-1" target="V_KuhvTImbU-2_eGopWf-2" edge="1">
            <mxGeometry width="100" height="100" relative="1" as="geometry">
              <Array as="points" />
            </mxGeometry>
          </mxCell>
        </UserObject>
        <UserObject label="" lucidchartObjectId="fVElLN0B~Lug" id="V_KuhvTImbU-2_eGopWf-5">
          <mxCell style="html=1;jettySize=18;whiteSpace=wrap;fontSize=13;strokeColor=#3a414a;strokeOpacity=100;strokeWidth=0.8;rounded=1;arcSize=0;edgeStyle=orthogonalEdgeStyle;startArrow=none;endArrow=block;endFill=1;exitX=1.002;exitY=0.5;exitPerimeter=0;entryX=0.5;entryY=-0.008;entryPerimeter=0;" parent="1" source="V_KuhvTImbU-2_eGopWf-1" target="V_KuhvTImbU-2_eGopWf-3" edge="1">
            <mxGeometry width="100" height="100" relative="1" as="geometry">
              <Array as="points" />
            </mxGeometry>
          </mxCell>
        </UserObject>
        <UserObject label="attenzione rivolta a" lucidchartObjectId="2ZElksRTVC9U" id="V_KuhvTImbU-2_eGopWf-6">
          <mxCell style="html=1;overflow=block;blockSpacing=1;whiteSpace=wrap;rhombus;fontSize=14;spacing=3.8;strokeColor=#36393d;strokeOpacity=100;fillOpacity=100;rounded=1;absoluteArcSize=1;arcSize=9;fillColor=#eeeeee;strokeWidth=0.8;align=center;labelPosition=center;verticalLabelPosition=middle;verticalAlign=middle;fontColor=#000000;container=0;" parent="1" vertex="1">
            <mxGeometry x="432.5593731089102" y="-1535.88" width="91.86073328454573" height="49" as="geometry" />
          </mxCell>
        </UserObject>
        <UserObject label="" lucidchartObjectId="V0ElHmMhb_H_" id="V_KuhvTImbU-2_eGopWf-7">
          <mxCell style="html=1;jettySize=18;whiteSpace=wrap;fontSize=13;strokeColor=#3a414a;strokeOpacity=100;strokeWidth=0.8;rounded=0;startArrow=none;endArrow=block;endFill=1;exitX=0.5;exitY=1.008;exitPerimeter=0;entryX=0.984;entryY=0.5;entryPerimeter=0;" parent="1" source="V_KuhvTImbU-2_eGopWf-3" target="V_KuhvTImbU-2_eGopWf-6" edge="1">
            <mxGeometry width="100" height="100" relative="1" as="geometry">
              <Array as="points" />
            </mxGeometry>
          </mxCell>
        </UserObject>
        <UserObject label="" lucidchartObjectId="30ElbhEXb_4U" id="V_KuhvTImbU-2_eGopWf-8">
          <mxCell style="html=1;jettySize=18;whiteSpace=wrap;fontSize=13;strokeColor=#3a414a;strokeOpacity=100;strokeWidth=0.8;rounded=0;startArrow=none;endArrow=block;endFill=1;exitX=0.5;exitY=1.008;exitPerimeter=0;entryX=0.016;entryY=0.5;entryPerimeter=0;" parent="1" source="V_KuhvTImbU-2_eGopWf-2" target="V_KuhvTImbU-2_eGopWf-6" edge="1">
            <mxGeometry width="100" height="100" relative="1" as="geometry">
              <Array as="points" />
            </mxGeometry>
          </mxCell>
        </UserObject>
        <UserObject label="ENERGIA" lucidchartObjectId="r1El8VEPG0fk" id="V_KuhvTImbU-2_eGopWf-9">
          <mxCell style="html=1;overflow=block;blockSpacing=1;whiteSpace=wrap;fontSize=11;align=center;spacing=3.8;strokeOpacity=100;fillOpacity=100;rounded=1;absoluteArcSize=1;arcSize=9;strokeWidth=0.8;fillColor=#66FF66;strokeColor=#2D7600;fontColor=#000000;container=0;" parent="1" vertex="1">
            <mxGeometry x="303.9543465105462" y="-1433.875" width="91.86073328454573" height="18.375" as="geometry" />
          </mxCell>
        </UserObject>
        <UserObject label="INFORMAZIONE" lucidchartObjectId="41ElJIFpAn1h" id="V_KuhvTImbU-2_eGopWf-10">
          <mxCell style="html=1;overflow=block;blockSpacing=1;whiteSpace=wrap;fontSize=11;spacing=3.8;strokeOpacity=100;fillOpacity=100;rounded=1;absoluteArcSize=1;arcSize=9;strokeWidth=0.8;fillColor=#66FF66;strokeColor=#2D7600;fontColor=#000000;container=0;" parent="1" vertex="1">
            <mxGeometry x="561.1643997072742" y="-1433.875" width="91.86073328454573" height="18.375" as="geometry" />
          </mxCell>
        </UserObject>
        <UserObject label="BLOCCHI FUNZIONALI" lucidchartObjectId="E5El9gGK8zPB" id="V_KuhvTImbU-2_eGopWf-11">
          <mxCell style="html=1;overflow=block;blockSpacing=1;whiteSpace=wrap;fontSize=11;spacing=3.8;strokeOpacity=100;fillOpacity=100;rounded=1;absoluteArcSize=1;arcSize=9;strokeWidth=0.8;fillColor=#66FF66;strokeColor=#2D7600;fontColor=#000000;container=0;" parent="1" vertex="1">
            <mxGeometry x="793.8782573614569" y="-1566.5" width="73.48858662763658" height="30.624999999999996" as="geometry" />
          </mxCell>
        </UserObject>
        <mxCell id="S8-AEcQRGxQJLUGlmGjb-33" style="edgeStyle=orthogonalEdgeStyle;rounded=0;orthogonalLoop=1;jettySize=auto;html=1;entryX=0;entryY=0.5;entryDx=0;entryDy=0;fontFamily=Helvetica;fontSize=9;endArrow=block;endFill=1;strokeColor=#000000;" edge="1" parent="1" source="V_KuhvTImbU-2_eGopWf-3" target="V_KuhvTImbU-2_eGopWf-11">
          <mxGeometry relative="1" as="geometry" />
        </mxCell>
        <UserObject label="ANALOGICI" lucidchartObjectId="~5ElXes_VRlE" id="V_KuhvTImbU-2_eGopWf-13">
          <mxCell style="html=1;overflow=block;blockSpacing=1;whiteSpace=wrap;fontSize=11.7;spacing=3.8;strokeColor=#36393d;strokeOpacity=100;fillOpacity=100;rounded=1;absoluteArcSize=1;arcSize=9;fillColor=#ffcccc;strokeWidth=0.8;container=0;" parent="1" vertex="1">
            <mxGeometry x="738.7618173907294" y="-1511.375" width="55.116439970727434" height="18.375" as="geometry" />
          </mxCell>
        </UserObject>
        <UserObject label="DIGITALI" lucidchartObjectId="h6ElQ-4IRWUj" id="V_KuhvTImbU-2_eGopWf-14">
          <mxCell style="html=1;overflow=block;blockSpacing=1;whiteSpace=wrap;fontSize=11.7;spacing=3.8;strokeColor=#36393d;strokeOpacity=100;fillOpacity=100;rounded=1;absoluteArcSize=1;arcSize=9;fillColor=#ffcccc;strokeWidth=0.8;container=0;" parent="1" vertex="1">
            <mxGeometry x="803.0643306899115" y="-1511.375" width="55.116439970727434" height="18.375" as="geometry" />
          </mxCell>
        </UserObject>
        <UserObject label="MIXED-SIGNAL" lucidchartObjectId="l6El-GRD.1cs" id="V_KuhvTImbU-2_eGopWf-15">
          <mxCell style="html=1;overflow=block;blockSpacing=1;whiteSpace=wrap;fontSize=11.7;spacing=3.8;strokeColor=#36393d;strokeOpacity=100;fillOpacity=100;rounded=1;absoluteArcSize=1;arcSize=9;fillColor=#ffcccc;strokeWidth=0.8;container=0;" parent="1" vertex="1">
            <mxGeometry x="867.3668439890935" y="-1511.375" width="55.116439970727434" height="18.375" as="geometry" />
          </mxCell>
        </UserObject>
        <mxCell id="S8-AEcQRGxQJLUGlmGjb-69" style="edgeStyle=orthogonalEdgeStyle;rounded=0;orthogonalLoop=1;jettySize=auto;html=1;entryX=0.5;entryY=0;entryDx=0;entryDy=0;fontSize=9;" edge="1" parent="1" source="V_KuhvTImbU-2_eGopWf-19" target="V_KuhvTImbU-2_eGopWf-21">
          <mxGeometry relative="1" as="geometry">
            <Array as="points">
              <mxPoint x="607" y="-1330" />
              <mxPoint x="335" y="-1330" />
            </Array>
          </mxGeometry>
        </mxCell>
        <mxCell id="S8-AEcQRGxQJLUGlmGjb-70" style="edgeStyle=orthogonalEdgeStyle;rounded=0;orthogonalLoop=1;jettySize=auto;html=1;entryX=0.5;entryY=0;entryDx=0;entryDy=0;fontSize=9;" edge="1" parent="1" source="V_KuhvTImbU-2_eGopWf-19" target="V_KuhvTImbU-2_eGopWf-22">
          <mxGeometry relative="1" as="geometry">
            <Array as="points">
              <mxPoint x="607" y="-1330" />
              <mxPoint x="880" y="-1330" />
            </Array>
          </mxGeometry>
        </mxCell>
        <UserObject label="SEGNALE" lucidchartObjectId="i~ElQbq9KEDh" id="V_KuhvTImbU-2_eGopWf-19">
          <mxCell style="html=1;overflow=block;blockSpacing=1;whiteSpace=wrap;fontSize=11;spacing=3.8;strokeOpacity=100;fillOpacity=100;rounded=1;absoluteArcSize=1;arcSize=9;strokeWidth=0.8;fillColor=#66FF66;strokeColor=#2D7600;fontColor=#000000;container=0;" parent="1" vertex="1">
            <mxGeometry x="561.1643997072742" y="-1372.625" width="91.86073328454573" height="30.624999999999996" as="geometry" />
          </mxCell>
        </UserObject>
        <mxCell id="S8-AEcQRGxQJLUGlmGjb-34" style="edgeStyle=orthogonalEdgeStyle;rounded=0;orthogonalLoop=1;jettySize=auto;html=1;entryX=0.5;entryY=0;entryDx=0;entryDy=0;fontFamily=Helvetica;fontSize=9;endArrow=block;endFill=1;strokeColor=#000000;" edge="1" parent="1" source="V_KuhvTImbU-2_eGopWf-11" target="V_KuhvTImbU-2_eGopWf-13">
          <mxGeometry relative="1" as="geometry">
            <Array as="points">
              <mxPoint x="830.6225506752753" y="-1523.625" />
              <mxPoint x="766.3200373760931" y="-1523.625" />
            </Array>
          </mxGeometry>
        </mxCell>
        <mxCell id="S8-AEcQRGxQJLUGlmGjb-35" style="edgeStyle=orthogonalEdgeStyle;rounded=0;orthogonalLoop=1;jettySize=auto;html=1;fontFamily=Helvetica;fontSize=9;endArrow=block;endFill=1;strokeColor=#000000;" edge="1" parent="1" source="V_KuhvTImbU-2_eGopWf-11" target="V_KuhvTImbU-2_eGopWf-14">
          <mxGeometry relative="1" as="geometry">
            <Array as="points">
              <mxPoint x="828.7853360095844" y="-1511.375" />
              <mxPoint x="828.7853360095844" y="-1511.375" />
            </Array>
          </mxGeometry>
        </mxCell>
        <UserObject label="" lucidchartObjectId="vaFlGMC20mRY" id="V_KuhvTImbU-2_eGopWf-20">
          <mxCell style="html=1;jettySize=18;whiteSpace=wrap;fontSize=13;strokeColor=#3a414a;strokeOpacity=100;strokeWidth=0.8;rounded=1;arcSize=12;edgeStyle=orthogonalEdgeStyle;startArrow=none;endArrow=block;endFill=1;exitX=0.5;exitY=1.012;exitPerimeter=0;entryX=0.5;entryY=-0.008;entryPerimeter=0;" parent="1" source="V_KuhvTImbU-2_eGopWf-10" target="V_KuhvTImbU-2_eGopWf-19" edge="1">
            <mxGeometry width="100" height="100" relative="1" as="geometry">
              <Array as="points" />
            </mxGeometry>
          </mxCell>
        </UserObject>
        <mxCell id="S8-AEcQRGxQJLUGlmGjb-72" style="edgeStyle=orthogonalEdgeStyle;rounded=0;orthogonalLoop=1;jettySize=auto;html=1;entryX=0.5;entryY=0;entryDx=0;entryDy=0;fontSize=9;" edge="1" parent="1" source="V_KuhvTImbU-2_eGopWf-21" target="V_KuhvTImbU-2_eGopWf-23">
          <mxGeometry relative="1" as="geometry">
            <Array as="points">
              <mxPoint x="335" y="-1240" />
              <mxPoint x="115" y="-1240" />
            </Array>
          </mxGeometry>
        </mxCell>
        <mxCell id="S8-AEcQRGxQJLUGlmGjb-73" style="edgeStyle=orthogonalEdgeStyle;rounded=0;orthogonalLoop=1;jettySize=auto;html=1;fontSize=9;" edge="1" parent="1" source="V_KuhvTImbU-2_eGopWf-21" target="V_KuhvTImbU-2_eGopWf-25">
          <mxGeometry relative="1" as="geometry">
            <Array as="points">
              <mxPoint x="335" y="-1240" />
              <mxPoint x="547" y="-1240" />
            </Array>
          </mxGeometry>
        </mxCell>
        <UserObject label="&lt;div style=&quot;display: flex; justify-content: center; text-align: center; align-items: baseline; font-size: 9px; line-height: 1.25; margin-top: -2px;&quot;&gt;&lt;span style=&quot;&quot;&gt;&lt;span style=&quot;font-size: 11px;&quot;&gt;DINAMICA&lt;br style=&quot;font-size: 11px;&quot;&gt;&lt;/span&gt;&lt;span style=&quot;&quot;&gt;intervallo di valori che un segnale può assumere, legata alla potenza elettrica associata al segnale&lt;/span&gt;&lt;/span&gt;&lt;/div&gt;" lucidchartObjectId="CaFlC.bQDcfy" id="V_KuhvTImbU-2_eGopWf-21">
          <mxCell style="html=1;overflow=block;blockSpacing=1;whiteSpace=wrap;fontSize=11;spacing=3.8;strokeOpacity=100;fillOpacity=100;rounded=1;absoluteArcSize=1;arcSize=9;strokeWidth=0.8;fontFamily=Helvetica;fillColor=#66FF66;strokeColor=#2D7600;fontColor=#000000;container=0;" parent="1" vertex="1">
            <mxGeometry x="240" y="-1310" width="190" height="54.75" as="geometry" />
          </mxCell>
        </UserObject>
        <mxCell id="S8-AEcQRGxQJLUGlmGjb-36" style="edgeStyle=orthogonalEdgeStyle;rounded=0;orthogonalLoop=1;jettySize=auto;html=1;entryX=0.547;entryY=0.008;entryDx=0;entryDy=0;fontFamily=Helvetica;fontSize=9;endArrow=block;endFill=1;strokeColor=#000000;entryPerimeter=0;" edge="1" parent="1" source="V_KuhvTImbU-2_eGopWf-11" target="V_KuhvTImbU-2_eGopWf-15">
          <mxGeometry relative="1" as="geometry">
            <Array as="points">
              <mxPoint x="830.6225506752753" y="-1523.625" />
              <mxPoint x="897.9870884172751" y="-1523.625" />
              <mxPoint x="897.9870884172751" y="-1511.375" />
            </Array>
          </mxGeometry>
        </mxCell>
        <UserObject label="&lt;div style=&quot;display: flex; justify-content: center; text-align: center; align-items: baseline; font-size: 11px; line-height: 1.25; margin-top: -2px;&quot;&gt;&lt;span style=&quot;font-size: 11px;&quot;&gt;&lt;span style=&quot;font-size: 11px;&quot;&gt;BANDA&lt;br style=&quot;font-size: 11px;&quot;&gt;&lt;/span&gt;&lt;span style=&quot;font-size: 11px;&quot;&gt;intervallo di frequenze in cui lo spettro del segnale è significativo&lt;br style=&quot;font-size: 11px;&quot;&gt;(ad es. in cui è concentrato il 99% dell&#39;energia), legata al suo contenuto d&#39;informazione&lt;br style=&quot;font-size: 11px;&quot;&gt;&lt;/span&gt;&lt;/span&gt;&lt;/div&gt;" lucidchartObjectId="NaFljsvgDDDa" id="V_KuhvTImbU-2_eGopWf-22">
          <mxCell style="html=1;overflow=block;blockSpacing=1;whiteSpace=wrap;fontSize=11;spacing=3.8;strokeOpacity=100;fillOpacity=100;rounded=1;absoluteArcSize=1;arcSize=9;strokeWidth=0.8;fillColor=#66FF66;strokeColor=#2D7600;fontColor=#000000;container=0;" parent="1" vertex="1">
            <mxGeometry x="787.7542084758206" y="-1310" width="183.72146656909146" height="36.75" as="geometry" />
          </mxCell>
        </UserObject>
        <mxCell id="S8-AEcQRGxQJLUGlmGjb-68" style="edgeStyle=orthogonalEdgeStyle;rounded=0;orthogonalLoop=1;jettySize=auto;html=1;entryX=0.5;entryY=0;entryDx=0;entryDy=0;fontSize=9;" edge="1" parent="1" source="V_KuhvTImbU-2_eGopWf-23" target="V_KuhvTImbU-2_eGopWf-27">
          <mxGeometry relative="1" as="geometry" />
        </mxCell>
        <UserObject label="&lt;div style=&quot;display: flex; justify-content: center; text-align: center; align-items: baseline; font-size: 9px; line-height: 1.25; margin-top: -2px;&quot;&gt;&lt;span style=&quot;&quot;&gt;&lt;span style=&quot;font-size: 11px;&quot;&gt;RUMORE&lt;br style=&quot;font-size: 11px;&quot;&gt;&lt;/span&gt;&lt;span style=&quot;&quot;&gt;variazioni non volute a cui non è associata alcuna informazione&lt;/span&gt;&lt;/span&gt;&lt;/div&gt;" lucidchartObjectId="ceFloytlK~nw" id="V_KuhvTImbU-2_eGopWf-23">
          <mxCell style="html=1;overflow=block;blockSpacing=1;whiteSpace=wrap;fontSize=11;spacing=3.8;strokeOpacity=100;fillOpacity=100;rounded=1;absoluteArcSize=1;arcSize=9;strokeWidth=0.8;fillColor=#66FF66;strokeColor=#2D7600;fontColor=#000000;container=0;" parent="1" vertex="1">
            <mxGeometry x="10" y="-1220" width="210" height="40" as="geometry" />
          </mxCell>
        </UserObject>
        <UserObject label="&lt;div style=&quot;display: flex; justify-content: center; text-align: center; align-items: baseline; font-size: 9px; line-height: 1.25; margin-top: -2px;&quot;&gt;&lt;span style=&quot;&quot;&gt;&lt;span style=&quot;font-size: 11px;&quot;&gt;ESCURSIONE DINAMICA&lt;br style=&quot;font-size: 11px;&quot;&gt;&lt;/span&gt;&lt;span style=&quot;&quot;&gt;rapporto tra la dinamica \(S\) e la minima ampiezza \(\delta v\) distinguibile dal rumore, legata all&#39;i nformazione utile che può portare un segnale ad un determinato istante&lt;/span&gt;&lt;/span&gt;&lt;/div&gt;" lucidchartObjectId="-iFlFDH.yqT3" id="V_KuhvTImbU-2_eGopWf-25">
          <mxCell style="html=1;overflow=block;blockSpacing=1;whiteSpace=wrap;fontSize=11;spacing=3.8;strokeOpacity=100;fillOpacity=100;rounded=1;absoluteArcSize=1;arcSize=9;strokeWidth=0.8;fillColor=#66FF66;strokeColor=#2D7600;fontColor=#000000;container=0;" parent="1" vertex="1">
            <mxGeometry x="440" y="-1220" width="213.03" height="60" as="geometry" />
          </mxCell>
        </UserObject>
        <UserObject label="&lt;div style=&quot;display: flex; justify-content: center; text-align: center; align-items: baseline; font-size: 9px; line-height: 1.25; margin-top: -2px;&quot;&gt;&lt;span style=&quot;&quot;&gt;&lt;span style=&quot;font-size: 11px;&quot;&gt;SNR&lt;br style=&quot;font-size: 11px;&quot;&gt;&lt;/span&gt;&lt;span style=&quot;&quot;&gt;(Signal-to-Noise Ratio)&lt;br style=&quot;font-size: 11px;&quot;&gt;esprime il rapporto tra la potenza di segnale e di rumore su un carico dato&lt;/span&gt;&lt;/span&gt;&lt;/div&gt;" lucidchartObjectId="NlFl~mT72mBA" id="V_KuhvTImbU-2_eGopWf-27">
          <mxCell style="html=1;overflow=block;blockSpacing=1;whiteSpace=wrap;fontSize=11;spacing=3.8;strokeOpacity=100;fillOpacity=100;rounded=1;absoluteArcSize=1;arcSize=9;strokeWidth=0.8;fillColor=#66FF66;strokeColor=#2D7600;fontColor=#000000;container=0;" parent="1" vertex="1">
            <mxGeometry x="10" y="-1150.5" width="210" height="58" as="geometry" />
          </mxCell>
        </UserObject>
        <UserObject label="" lucidchartObjectId="zpFlL2CMC-he" id="V_KuhvTImbU-2_eGopWf-29">
          <mxCell style="html=1;jettySize=18;whiteSpace=wrap;fontSize=13;strokeColor=#3a414a;strokeOpacity=100;strokeWidth=0.8;rounded=1;arcSize=0;edgeStyle=orthogonalEdgeStyle;startArrow=none;endArrow=block;endFill=1;exitX=0.5;exitY=0.991;exitPerimeter=0;entryX=0.5;entryY=-0.012;entryPerimeter=0;" parent="1" source="V_KuhvTImbU-2_eGopWf-6" target="V_KuhvTImbU-2_eGopWf-9" edge="1">
            <mxGeometry width="100" height="100" relative="1" as="geometry">
              <Array as="points" />
            </mxGeometry>
          </mxCell>
        </UserObject>
        <UserObject label="" lucidchartObjectId="CpFlIvJUsDqa" id="V_KuhvTImbU-2_eGopWf-30">
          <mxCell style="html=1;jettySize=18;whiteSpace=wrap;fontSize=13;strokeColor=#3a414a;strokeOpacity=100;strokeWidth=0.8;rounded=1;arcSize=0;edgeStyle=orthogonalEdgeStyle;startArrow=none;endArrow=block;endFill=1;exitX=0.5;exitY=0.991;exitPerimeter=0;entryX=0.5;entryY=-0.012;entryPerimeter=0;" parent="1" source="V_KuhvTImbU-2_eGopWf-6" target="V_KuhvTImbU-2_eGopWf-10" edge="1">
            <mxGeometry width="100" height="100" relative="1" as="geometry">
              <Array as="points" />
            </mxGeometry>
          </mxCell>
        </UserObject>
        <UserObject label="modulo" lucidchartObjectId="kuFlH_ao~T5j" id="V_KuhvTImbU-2_eGopWf-31">
          <mxCell style="html=1;overflow=block;blockSpacing=1;whiteSpace=wrap;rhombus;fontSize=14;spacing=3.8;strokeColor=#36393d;strokeOpacity=100;fillOpacity=100;rounded=1;absoluteArcSize=1;arcSize=9;fillColor=#eeeeee;strokeWidth=0.8;fontColor=#000000;container=0;" parent="1" vertex="1">
            <mxGeometry x="60" y="-1060" width="72.87" height="40" as="geometry" />
          </mxCell>
        </UserObject>
        <mxCell id="S8-AEcQRGxQJLUGlmGjb-17" style="rounded=0;orthogonalLoop=1;jettySize=auto;html=1;entryX=0;entryY=0.5;entryDx=0;entryDy=0;fontFamily=Helvetica;fontSize=14;exitX=0.1;exitY=1.01;exitDx=0;exitDy=0;exitPerimeter=0;edgeStyle=elbowEdgeStyle;" edge="1" parent="1" source="V_KuhvTImbU-2_eGopWf-27" target="V_KuhvTImbU-2_eGopWf-31">
          <mxGeometry relative="1" as="geometry">
            <Array as="points">
              <mxPoint x="28.37214665690908" y="-1055.75" />
            </Array>
          </mxGeometry>
        </mxCell>
        <UserObject label="um" lucidchartObjectId="7uFlqthe8yNe" id="V_KuhvTImbU-2_eGopWf-32">
          <mxCell style="html=1;overflow=block;blockSpacing=1;whiteSpace=wrap;rhombus;fontSize=14;spacing=3.8;strokeColor=#36393d;strokeOpacity=100;fillOpacity=100;rounded=1;absoluteArcSize=1;arcSize=9;fillColor=#eeeeee;strokeWidth=0.8;fontColor=#000000;container=0;" parent="1" vertex="1">
            <mxGeometry x="60" y="-940" width="72.87" height="40" as="geometry" />
          </mxCell>
        </UserObject>
        <mxCell id="S8-AEcQRGxQJLUGlmGjb-18" style="edgeStyle=elbowEdgeStyle;rounded=0;orthogonalLoop=1;jettySize=auto;html=1;entryX=0;entryY=0.5;entryDx=0;entryDy=0;fontFamily=Helvetica;fontSize=14;" edge="1" parent="1" source="V_KuhvTImbU-2_eGopWf-27" target="V_KuhvTImbU-2_eGopWf-32">
          <mxGeometry relative="1" as="geometry">
            <Array as="points">
              <mxPoint x="28.37214665690908" y="-1019" />
            </Array>
          </mxGeometry>
        </mxCell>
        <UserObject label="&lt;div style=&quot;display: flex; justify-content: center; text-align: center; align-items: baseline; line-height: 1.25; margin-top: -2px; font-size: 9px;&quot;&gt;&lt;span&gt;&lt;span style=&quot;color: rgb(58, 65, 74);&quot;&gt;&lt;font style=&quot;font-size: 11px;&quot;&gt;Decibel (dB)&lt;/font&gt;&lt;br&gt;&lt;/span&gt;&lt;span style=&quot;color: rgb(58, 65, 74);&quot;&gt;unità di misura relativa con la quale la potenza di un segnale viene paragonata a un valore di riferimento su scala logaritmica&lt;/span&gt;&lt;/span&gt;&lt;/div&gt;" lucidchartObjectId="TzFl0S9uKZ~m" id="V_KuhvTImbU-2_eGopWf-37">
          <mxCell style="html=1;overflow=block;blockSpacing=1;whiteSpace=wrap;fontSize=13;spacing=3.8;strokeColor=#3a414a;strokeOpacity=100;fillOpacity=100;rounded=1;absoluteArcSize=1;arcSize=9;fillColor=#f2f3f5;strokeWidth=0.8;container=0;" parent="1" vertex="1">
            <mxGeometry x="169.62" y="-950" width="140.38" height="60" as="geometry" />
          </mxCell>
        </UserObject>
        <mxCell id="S8-AEcQRGxQJLUGlmGjb-23" style="edgeStyle=elbowEdgeStyle;rounded=0;orthogonalLoop=1;jettySize=auto;html=1;fontFamily=Helvetica;fontSize=14;" edge="1" parent="1" source="V_KuhvTImbU-2_eGopWf-32" target="V_KuhvTImbU-2_eGopWf-37">
          <mxGeometry relative="1" as="geometry" />
        </mxCell>
        <UserObject label="modulo" lucidchartObjectId="eGFlUj89s3dI" id="V_KuhvTImbU-2_eGopWf-39">
          <mxCell style="html=1;overflow=block;blockSpacing=1;whiteSpace=wrap;rhombus;fontSize=14;spacing=3.8;strokeColor=#36393d;strokeOpacity=100;fillOpacity=100;rounded=1;absoluteArcSize=1;arcSize=9;fillColor=#eeeeee;strokeWidth=0.8;fontColor=#000000;container=0;" parent="1" vertex="1">
            <mxGeometry x="518.2960575078198" y="-1101.5" width="48.99239108509106" height="24.5" as="geometry" />
          </mxCell>
        </UserObject>
        <mxCell id="S8-AEcQRGxQJLUGlmGjb-7" style="edgeStyle=elbowEdgeStyle;rounded=0;orthogonalLoop=1;jettySize=auto;html=1;entryX=0;entryY=0.5;entryDx=0;entryDy=0;" edge="1" parent="1" source="V_KuhvTImbU-2_eGopWf-25" target="V_KuhvTImbU-2_eGopWf-39">
          <mxGeometry relative="1" as="geometry">
            <Array as="points">
              <mxPoint x="481.5517641940014" y="-1107.625" />
            </Array>
          </mxGeometry>
        </mxCell>
        <UserObject label="&lt;div style=&quot;display: flex; justify-content: center; text-align: center; align-items: baseline; font-size: 9px; line-height: 1.25; margin-top: -2px;&quot;&gt;&lt;span&gt;&lt;span style=&quot;font-size:16.7px;color:#3a414a;&quot;&gt;SEMPRE LIMITATA&lt;br&gt;&lt;/span&gt;&lt;span style=&quot;color: rgb(58, 65, 74);&quot;&gt;per i segnali fisici&lt;/span&gt;&lt;/span&gt;&lt;/div&gt;" lucidchartObjectId="OPFlVcPKJhmu" id="V_KuhvTImbU-2_eGopWf-53">
          <mxCell style="html=1;overflow=block;blockSpacing=1;whiteSpace=wrap;fontSize=13;spacing=3.8;strokeColor=#36393d;strokeOpacity=100;rounded=1;absoluteArcSize=1;arcSize=9;strokeWidth=0.8;fillColor=#ffcccc;container=0;" parent="1" vertex="1">
            <mxGeometry x="836.7465995609116" y="-1262.375" width="116.35692882709127" height="24.5" as="geometry" />
          </mxCell>
        </UserObject>
        <mxCell id="S8-AEcQRGxQJLUGlmGjb-32" style="edgeStyle=elbowEdgeStyle;rounded=0;orthogonalLoop=1;jettySize=auto;html=1;entryX=0;entryY=0.5;entryDx=0;entryDy=0;fontFamily=Helvetica;fontSize=9;endArrow=block;endFill=1;strokeColor=#000000;" edge="1" parent="1" source="V_KuhvTImbU-2_eGopWf-22" target="V_KuhvTImbU-2_eGopWf-53">
          <mxGeometry relative="1" as="geometry">
            <Array as="points">
              <mxPoint x="806.1263551327297" y="-1250.125" />
            </Array>
          </mxGeometry>
        </mxCell>
        <UserObject label="&lt;div style=&quot;display: flex; justify-content: center; text-align: center; align-items: baseline; font-size: 0; line-height: 1.25;margin-top: -2px;&quot;&gt;&lt;span&gt;&lt;span style=&quot;font-size:16.7px;color:#3a414a;&quot;&gt;STRETTA&lt;br&gt;&lt;/span&gt;&lt;font size=&quot;1&quot;&gt;&lt;span style=&quot;font-size: 9px; color: rgb(58, 65, 74);&quot;&gt;per i segnali che variano lentamente/in modo regolare&lt;/span&gt;&lt;/font&gt;&lt;/span&gt;&lt;/div&gt;" lucidchartObjectId="6TFlstYmunlc" id="V_KuhvTImbU-2_eGopWf-54">
          <mxCell style="html=1;overflow=block;blockSpacing=1;whiteSpace=wrap;fontSize=13;spacing=3.8;strokeColor=#36393d;strokeOpacity=100;rounded=1;absoluteArcSize=1;arcSize=9;strokeWidth=0.8;fillColor=#ffcccc;container=0;" parent="1" vertex="1">
            <mxGeometry x="836.7465995609116" y="-1219.5" width="134.72907548400042" height="30.624999999999996" as="geometry" />
          </mxCell>
        </UserObject>
        <mxCell id="S8-AEcQRGxQJLUGlmGjb-30" style="edgeStyle=elbowEdgeStyle;rounded=0;orthogonalLoop=1;jettySize=auto;html=1;entryX=0;entryY=0.5;entryDx=0;entryDy=0;fontFamily=Helvetica;fontSize=9;endArrow=block;endFill=1;" edge="1" parent="1" source="V_KuhvTImbU-2_eGopWf-22" target="V_KuhvTImbU-2_eGopWf-54">
          <mxGeometry relative="1" as="geometry">
            <Array as="points">
              <mxPoint x="806.1263551327297" y="-1231.75" />
            </Array>
          </mxGeometry>
        </mxCell>
        <UserObject label="&lt;div style=&quot;display: flex; justify-content: center; text-align: center; align-items: baseline; font-size: 9px; line-height: 1.25; margin-top: -2px;&quot;&gt;&lt;span&gt;&lt;span style=&quot;font-size:16.7px;color:#3a414a;&quot;&gt;LARGA&lt;br&gt;&lt;/span&gt;&lt;span style=&quot;color: rgb(58, 65, 74);&quot;&gt;per i segnali che variano r apidamente/in modo irregolare&lt;/span&gt;&lt;/span&gt;&lt;/div&gt;" lucidchartObjectId="8TFl-1Wmz8BK" id="V_KuhvTImbU-2_eGopWf-55">
          <mxCell style="html=1;overflow=block;blockSpacing=1;whiteSpace=wrap;fontSize=13;spacing=3.8;strokeColor=#36393d;strokeOpacity=100;rounded=1;absoluteArcSize=1;arcSize=9;strokeWidth=0.8;fillColor=#ffcccc;container=0;" parent="1" vertex="1">
            <mxGeometry x="836.7465995609116" y="-1170.5" width="134.72907548400042" height="30.624999999999996" as="geometry" />
          </mxCell>
        </UserObject>
        <mxCell id="S8-AEcQRGxQJLUGlmGjb-31" style="edgeStyle=elbowEdgeStyle;rounded=0;orthogonalLoop=1;jettySize=auto;html=1;entryX=0;entryY=0.5;entryDx=0;entryDy=0;fontFamily=Helvetica;fontSize=9;endArrow=block;endFill=1;strokeColor=#000000;" edge="1" parent="1" source="V_KuhvTImbU-2_eGopWf-22" target="V_KuhvTImbU-2_eGopWf-55">
          <mxGeometry relative="1" as="geometry">
            <Array as="points">
              <mxPoint x="806.1263551327297" y="-1237.875" />
            </Array>
          </mxGeometry>
        </mxCell>
        <mxCell id="S8-AEcQRGxQJLUGlmGjb-5" value="$$DR = \frac{S}{\delta v}$$" style="rounded=1;whiteSpace=wrap;html=1;shadow=0;glass=0;sketch=0;container=0;" vertex="1" parent="1">
          <mxGeometry x="604.0327419067289" y="-1126" width="73.48858662763658" height="24.5" as="geometry" />
        </mxCell>
        <mxCell id="S8-AEcQRGxQJLUGlmGjb-6" value="$$DR|_{dB} = 20 \, log_{10} \frac{S}{\delta v}$$" style="rounded=1;whiteSpace=wrap;html=1;shadow=0;glass=0;sketch=0;fillColor=#ffcc99;strokeColor=#36393d;container=0;" vertex="1" parent="1">
          <mxGeometry x="604.0327419067289" y="-1077" width="97.98478217018211" height="24.5" as="geometry" />
        </mxCell>
        <mxCell id="S8-AEcQRGxQJLUGlmGjb-11" value="$$SNR = \frac{P_{signal}}{P_{noise}}$$" style="rounded=1;whiteSpace=wrap;html=1;shadow=0;glass=0;sketch=0;fontFamily=Helvetica;fontSize=14;container=0;" vertex="1" parent="1">
          <mxGeometry x="169.615026598364" y="-1076.995" width="97.98478217018211" height="30.624999999999996" as="geometry" />
        </mxCell>
        <mxCell id="S8-AEcQRGxQJLUGlmGjb-13" value="$$SNR|_{dB} = 10 \, log_{10} \frac{P_{signal}}{P_{noise}}$$" style="rounded=1;whiteSpace=wrap;html=1;shadow=0;glass=0;sketch=0;fontFamily=Helvetica;fontSize=14;container=0;" vertex="1" parent="1">
          <mxGeometry x="169.615026598364" y="-1034.12" width="146.97717325527316" height="30.624999999999996" as="geometry" />
        </mxCell>
        <mxCell id="S8-AEcQRGxQJLUGlmGjb-37" value="$$SNR = \frac{P_{signal}}{P_{noise}}$$" style="rounded=1;whiteSpace=wrap;html=1;shadow=0;glass=0;sketch=0;fontFamily=Helvetica;fontSize=14;fillColor=#ffcc99;strokeColor=#36393d;container=0;" vertex="1" parent="1">
          <mxGeometry x="169.615026598364" y="-1076.995" width="97.98478217018211" height="30.624999999999996" as="geometry" />
        </mxCell>
        <mxCell id="S8-AEcQRGxQJLUGlmGjb-38" value="$$SNR|_{dB} = 10 \, log_{10} \frac{P_{signal}}{P_{noise}}$$" style="rounded=1;whiteSpace=wrap;html=1;shadow=0;glass=0;sketch=0;fontFamily=Helvetica;fontSize=14;fillColor=#ffcc99;strokeColor=#36393d;container=0;" vertex="1" parent="1">
          <mxGeometry x="169.615026598364" y="-1034.12" width="146.97717325527316" height="30.624999999999996" as="geometry" />
        </mxCell>
        <mxCell id="S8-AEcQRGxQJLUGlmGjb-39" value="$$DR = \frac{S}{\delta v}$$" style="rounded=1;whiteSpace=wrap;html=1;shadow=0;glass=0;sketch=0;fillColor=#ffcc99;strokeColor=#36393d;container=0;" vertex="1" parent="1">
          <mxGeometry x="604.0327419067289" y="-1126" width="73.48858662763658" height="24.5" as="geometry" />
        </mxCell>
        <mxCell id="S8-AEcQRGxQJLUGlmGjb-8" style="edgeStyle=elbowEdgeStyle;rounded=0;orthogonalLoop=1;jettySize=auto;html=1;exitX=1;exitY=0.5;exitDx=0;exitDy=0;entryX=0;entryY=0.5;entryDx=0;entryDy=0;" edge="1" parent="1" source="V_KuhvTImbU-2_eGopWf-39" target="S8-AEcQRGxQJLUGlmGjb-5">
          <mxGeometry relative="1" as="geometry">
            <Array as="points">
              <mxPoint x="579.5365463641838" y="-1089.25" />
            </Array>
          </mxGeometry>
        </mxCell>
        <mxCell id="S8-AEcQRGxQJLUGlmGjb-42" value="&lt;div&gt;ANALOGICO&lt;/div&gt;" style="rounded=1;whiteSpace=wrap;html=1;shadow=0;glass=0;sketch=0;fontFamily=Helvetica;fontSize=9;fillColor=#ffcccc;strokeColor=#36393d;container=0;" vertex="1" parent="1">
          <mxGeometry x="995.9718705874575" y="-1440" width="73.48858662763658" height="24.5" as="geometry" />
        </mxCell>
        <mxCell id="S8-AEcQRGxQJLUGlmGjb-43" value="DIGITALE" style="rounded=1;whiteSpace=wrap;html=1;shadow=0;glass=0;sketch=0;fontFamily=Helvetica;fontSize=9;fillColor=#ffcccc;strokeColor=#36393d;container=0;" vertex="1" parent="1">
          <mxGeometry x="995.9718705874575" y="-1403.25" width="73.48858662763658" height="24.5" as="geometry" />
        </mxCell>
        <mxCell id="S8-AEcQRGxQJLUGlmGjb-9" style="edgeStyle=elbowEdgeStyle;rounded=0;orthogonalLoop=1;jettySize=auto;html=1;entryX=0;entryY=0.5;entryDx=0;entryDy=0;" edge="1" parent="1" source="V_KuhvTImbU-2_eGopWf-39" target="S8-AEcQRGxQJLUGlmGjb-6">
          <mxGeometry relative="1" as="geometry">
            <Array as="points">
              <mxPoint x="579.5365463641838" y="-1089.25" />
            </Array>
          </mxGeometry>
        </mxCell>
        <mxCell id="S8-AEcQRGxQJLUGlmGjb-21" style="edgeStyle=elbowEdgeStyle;rounded=0;orthogonalLoop=1;jettySize=auto;html=1;entryX=0;entryY=0.5;entryDx=0;entryDy=0;fontFamily=Helvetica;fontSize=14;" edge="1" parent="1" source="V_KuhvTImbU-2_eGopWf-31" target="S8-AEcQRGxQJLUGlmGjb-11">
          <mxGeometry relative="1" as="geometry" />
        </mxCell>
        <mxCell id="S8-AEcQRGxQJLUGlmGjb-20" style="edgeStyle=elbowEdgeStyle;rounded=0;orthogonalLoop=1;jettySize=auto;html=1;entryX=0;entryY=0.5;entryDx=0;entryDy=0;fontFamily=Helvetica;fontSize=14;" edge="1" parent="1" source="V_KuhvTImbU-2_eGopWf-31" target="S8-AEcQRGxQJLUGlmGjb-13">
          <mxGeometry relative="1" as="geometry" />
        </mxCell>
        <mxCell id="S8-AEcQRGxQJLUGlmGjb-45" style="edgeStyle=orthogonalEdgeStyle;rounded=0;orthogonalLoop=1;jettySize=auto;html=1;entryX=0;entryY=0.5;entryDx=0;entryDy=0;fontFamily=Helvetica;fontSize=9;fontColor=#FFFFFF;endArrow=block;endFill=1;strokeColor=#000000;" edge="1" parent="1" source="V_KuhvTImbU-2_eGopWf-19" target="S8-AEcQRGxQJLUGlmGjb-42">
          <mxGeometry relative="1" as="geometry" />
        </mxCell>
        <mxCell id="S8-AEcQRGxQJLUGlmGjb-46" style="edgeStyle=orthogonalEdgeStyle;rounded=0;orthogonalLoop=1;jettySize=auto;html=1;entryX=0;entryY=0.5;entryDx=0;entryDy=0;fontFamily=Helvetica;fontSize=9;fontColor=#FFFFFF;endArrow=block;endFill=1;strokeColor=#000000;" edge="1" parent="1" source="V_KuhvTImbU-2_eGopWf-19" target="S8-AEcQRGxQJLUGlmGjb-43">
          <mxGeometry relative="1" as="geometry" />
        </mxCell>
      </root>
    </mxGraphModel>
  </diagram>
</mxfile>
